<?xml version="1.0" encoding="utf-8" standalone="no"?>
<!DOCTYPE svg PUBLIC "-//W3C//DTD SVG 1.1//EN"
  "http://www.w3.org/Graphics/SVG/1.1/DTD/svg11.dtd">
<svg xmlns:xlink="http://www.w3.org/1999/xlink" width="568.929844pt" height="353.296594pt" viewBox="0 0 568.929844 353.296594" xmlns="http://www.w3.org/2000/svg" version="1.1">
 <metadata>
  <rdf:RDF xmlns:dc="http://purl.org/dc/elements/1.1/" xmlns:cc="http://creativecommons.org/ns#" xmlns:rdf="http://www.w3.org/1999/02/22-rdf-syntax-ns#">
   <cc:Work>
    <dc:type rdf:resource="http://purl.org/dc/dcmitype/StillImage"/>
    <dc:date>2026-07-20T07:07:04.129894</dc:date>
    <dc:format>image/svg+xml</dc:format>
    <dc:creator>
     <cc:Agent>
      <dc:title>Matplotlib v3.10.9, https://matplotlib.org/</dc:title>
     </cc:Agent>
    </dc:creator>
   </cc:Work>
  </rdf:RDF>
 </metadata>
 <defs>
  <style type="text/css">*{stroke-linejoin: round; stroke-linecap: butt}</style>
 </defs>
 <g id="figure_1">
  <g id="patch_1">
   <path d="M 0 353.296594 
L 568.929844 353.296594 
L 568.929844 0 
L 0 0 
z
" style="fill: #ffffff"/>
  </g>
  <g id="axes_1">
   <g id="patch_2">
    <path d="M 40.454844 330.386281 
L 561.729844 330.386281 
L 561.729844 34.032281 
L 40.454844 34.032281 
z
" style="fill: #ffffff"/>
   </g>
   <g id="patch_3">
    <path d="M 64.149162 330.386281 
L 222.111283 330.386281 
L 222.111283 330.386281 
L 64.149162 330.386281 
z
" clip-path="url(#p5817189707)" style="fill: #4c72b0"/>
   </g>
   <g id="patch_4">
    <path d="M 380.073404 330.386281 
L 538.035526 330.386281 
L 538.035526 330.386281 
L 380.073404 330.386281 
z
" clip-path="url(#p5817189707)" style="fill: #4c72b0"/>
   </g>
   <g id="patch_5">
    <path d="M 64.149162 330.386281 
L 222.111283 330.386281 
L 222.111283 294.963903 
L 64.149162 294.963903 
z
" clip-path="url(#p5817189707)" style="fill: #dd8452"/>
   </g>
   <g id="patch_6">
    <path d="M 380.073404 330.386281 
L 538.035526 330.386281 
L 538.035526 247.035129 
L 380.073404 247.035129 
z
" clip-path="url(#p5817189707)" style="fill: #dd8452"/>
   </g>
   <g id="patch_7">
    <path d="M 64.149162 294.963903 
L 222.111283 294.963903 
L 222.111283 153.729317 
L 64.149162 153.729317 
z
" clip-path="url(#p5817189707)" style="fill: #55a868"/>
   </g>
   <g id="patch_8">
    <path d="M 380.073404 247.035129 
L 538.035526 247.035129 
L 538.035526 101.590388 
L 380.073404 101.590388 
z
" clip-path="url(#p5817189707)" style="fill: #55a868"/>
   </g>
   <g id="patch_9">
    <path d="M 64.149162 153.729317 
L 222.111283 153.729317 
L 222.111283 153.729317 
L 64.149162 153.729317 
z
" clip-path="url(#p5817189707)" style="fill: #c44e52"/>
   </g>
   <g id="patch_10">
    <path d="M 380.073404 101.590388 
L 538.035526 101.590388 
L 538.035526 101.590388 
L 380.073404 101.590388 
z
" clip-path="url(#p5817189707)" style="fill: #c44e52"/>
   </g>
   <g id="matplotlib.axis_1">
    <g id="xtick_1">
     <g id="line2d_1">
      <defs>
       <path id="md33e2cf728" d="M 0 0 
L 0 3.5 
" style="stroke: #000000; stroke-width: 0.8"/>
      </defs>
      <g>
       <use xlink:href="#md33e2cf728" x="143.130223" y="330.386281" style="stroke: #000000; stroke-width: 0.8"/>
      </g>
     </g>
     <g id="text_1">
      <!-- Images -->
      <g transform="translate(126.549129 344.096906) scale(0.09 -0.09)">
       <defs>
        <path id="DejaVuSerif-49" d="M 1581 331 
L 2175 331 
L 2175 0 
L 353 0 
L 353 331 
L 947 331 
L 947 4331 
L 353 4331 
L 353 4666 
L 2175 4666 
L 2175 4331 
L 1581 4331 
L 1581 331 
z
" transform="scale(0.015625)"/>
        <path id="DejaVuSerif-6d" d="M 3316 2675 
Q 3481 3041 3739 3227 
Q 3997 3413 4341 3413 
Q 4863 3413 5119 3089 
Q 5375 2766 5375 2113 
L 5375 331 
L 5894 331 
L 5894 0 
L 4300 0 
L 4300 331 
L 4800 331 
L 4800 2047 
Q 4800 2556 4650 2772 
Q 4500 2988 4153 2988 
Q 3769 2988 3567 2697 
Q 3366 2406 3366 1850 
L 3366 331 
L 3866 331 
L 3866 0 
L 2291 0 
L 2291 331 
L 2791 331 
L 2791 2069 
Q 2791 2566 2641 2777 
Q 2491 2988 2144 2988 
Q 1759 2988 1557 2697 
Q 1356 2406 1356 1850 
L 1356 331 
L 1856 331 
L 1856 0 
L 263 0 
L 263 331 
L 781 331 
L 781 2994 
L 231 2994 
L 231 3322 
L 1356 3322 
L 1356 2731 
Q 1516 3063 1762 3238 
Q 2009 3413 2322 3413 
Q 2709 3413 2968 3220 
Q 3228 3028 3316 2675 
z
" transform="scale(0.015625)"/>
        <path id="DejaVuSerif-61" d="M 2547 1044 
L 2547 1747 
L 1806 1747 
Q 1378 1747 1168 1562 
Q 959 1378 959 997 
Q 959 650 1171 447 
Q 1384 244 1747 244 
Q 2106 244 2326 466 
Q 2547 688 2547 1044 
z
M 3122 2075 
L 3122 331 
L 3634 331 
L 3634 0 
L 2547 0 
L 2547 359 
Q 2356 128 2106 18 
Q 1856 -91 1522 -91 
Q 969 -91 644 203 
Q 319 497 319 997 
Q 319 1513 691 1797 
Q 1063 2081 1741 2081 
L 2547 2081 
L 2547 2309 
Q 2547 2688 2317 2895 
Q 2088 3103 1672 3103 
Q 1328 3103 1125 2947 
Q 922 2791 872 2484 
L 575 2484 
L 575 3156 
Q 875 3284 1158 3348 
Q 1441 3413 1709 3413 
Q 2400 3413 2761 3070 
Q 3122 2728 3122 2075 
z
" transform="scale(0.015625)"/>
        <path id="DejaVuSerif-67" d="M 3359 2988 
L 3359 72 
Q 3359 -644 2965 -1033 
Q 2572 -1422 1844 -1422 
Q 1516 -1422 1216 -1362 
Q 916 -1303 641 -1184 
L 641 -488 
L 941 -488 
Q 997 -813 1206 -963 
Q 1416 -1113 1806 -1113 
Q 2313 -1113 2548 -827 
Q 2784 -541 2784 72 
L 2784 519 
Q 2616 206 2355 57 
Q 2094 -91 1709 -91 
Q 1097 -91 708 395 
Q 319 881 319 1663 
Q 319 2444 706 2928 
Q 1094 3413 1709 3413 
Q 2094 3413 2355 3264 
Q 2616 3116 2784 2803 
L 2784 3322 
L 3909 3322 
L 3909 2988 
L 3359 2988 
z
M 2784 1825 
Q 2784 2422 2554 2737 
Q 2325 3053 1888 3053 
Q 1444 3053 1217 2703 
Q 991 2353 991 1663 
Q 991 975 1217 622 
Q 1444 269 1888 269 
Q 2325 269 2554 583 
Q 2784 897 2784 1497 
L 2784 1825 
z
" transform="scale(0.015625)"/>
        <path id="DejaVuSerif-65" d="M 3469 1600 
L 991 1600 
L 991 1575 
Q 991 903 1244 561 
Q 1497 219 1991 219 
Q 2369 219 2611 417 
Q 2853 616 2950 1006 
L 3413 1006 
Q 3275 459 2904 184 
Q 2534 -91 1931 -91 
Q 1203 -91 761 389 
Q 319 869 319 1663 
Q 319 2450 753 2931 
Q 1188 3413 1894 3413 
Q 2647 3413 3050 2948 
Q 3453 2484 3469 1600 
z
M 2791 1931 
Q 2772 2513 2545 2808 
Q 2319 3103 1894 3103 
Q 1497 3103 1269 2806 
Q 1041 2509 991 1931 
L 2791 1931 
z
" transform="scale(0.015625)"/>
        <path id="DejaVuSerif-73" d="M 359 184 
L 359 959 
L 691 959 
Q 703 588 923 403 
Q 1144 219 1575 219 
Q 1963 219 2166 364 
Q 2369 509 2369 788 
Q 2369 1006 2220 1140 
Q 2072 1275 1594 1428 
L 1178 1569 
Q 750 1706 558 1912 
Q 366 2119 366 2438 
Q 366 2894 700 3153 
Q 1034 3413 1625 3413 
Q 1888 3413 2178 3344 
Q 2469 3275 2778 3144 
L 2778 2419 
L 2447 2419 
Q 2434 2741 2221 2922 
Q 2009 3103 1644 3103 
Q 1281 3103 1095 2975 
Q 909 2847 909 2591 
Q 909 2381 1050 2254 
Q 1191 2128 1613 1997 
L 2069 1856 
Q 2541 1709 2748 1489 
Q 2956 1269 2956 922 
Q 2956 450 2595 179 
Q 2234 -91 1600 -91 
Q 1278 -91 972 -22 
Q 666 47 359 184 
z
" transform="scale(0.015625)"/>
       </defs>
       <use xlink:href="#DejaVuSerif-49"/>
       <use xlink:href="#DejaVuSerif-6d" transform="translate(39.501953 0)"/>
       <use xlink:href="#DejaVuSerif-61" transform="translate(134.326172 0)"/>
       <use xlink:href="#DejaVuSerif-67" transform="translate(193.945312 0)"/>
       <use xlink:href="#DejaVuSerif-65" transform="translate(257.958984 0)"/>
       <use xlink:href="#DejaVuSerif-73" transform="translate(317.138672 0)"/>
      </g>
     </g>
    </g>
    <g id="xtick_2">
     <g id="line2d_2">
      <g>
       <use xlink:href="#md33e2cf728" x="459.054465" y="330.386281" style="stroke: #000000; stroke-width: 0.8"/>
      </g>
     </g>
     <g id="text_2">
      <!-- Binary -->
      <g transform="translate(444.033606 344.096906) scale(0.09 -0.09)">
       <defs>
        <path id="DejaVuSerif-42" d="M 1581 331 
L 2516 331 
Q 3078 331 3337 575 
Q 3597 819 3597 1350 
Q 3597 1878 3339 2120 
Q 3081 2363 2516 2363 
L 1581 2363 
L 1581 331 
z
M 1581 2694 
L 2375 2694 
Q 2888 2694 3123 2891 
Q 3359 3088 3359 3513 
Q 3359 3941 3123 4136 
Q 2888 4331 2375 4331 
L 1581 4331 
L 1581 2694 
z
M 353 0 
L 353 331 
L 947 331 
L 947 4331 
L 353 4331 
L 353 4666 
L 2656 4666 
Q 3363 4666 3720 4377 
Q 4078 4088 4078 3513 
Q 4078 3097 3829 2850 
Q 3581 2603 3103 2547 
Q 3697 2472 4005 2167 
Q 4313 1863 4313 1350 
Q 4313 656 3875 328 
Q 3438 0 2509 0 
L 353 0 
z
" transform="scale(0.015625)"/>
        <path id="DejaVuSerif-69" d="M 622 4353 
Q 622 4497 726 4603 
Q 831 4709 978 4709 
Q 1122 4709 1226 4603 
Q 1331 4497 1331 4353 
Q 1331 4206 1228 4103 
Q 1125 4000 978 4000 
Q 831 4000 726 4103 
Q 622 4206 622 4353 
z
M 1356 331 
L 1900 331 
L 1900 0 
L 231 0 
L 231 331 
L 781 331 
L 781 2988 
L 231 2988 
L 231 3322 
L 1356 3322 
L 1356 331 
z
" transform="scale(0.015625)"/>
        <path id="DejaVuSerif-6e" d="M 263 0 
L 263 331 
L 781 331 
L 781 2988 
L 231 2988 
L 231 3322 
L 1356 3322 
L 1356 2731 
Q 1516 3069 1770 3241 
Q 2025 3413 2363 3413 
Q 2913 3413 3172 3097 
Q 3431 2781 3431 2113 
L 3431 331 
L 3944 331 
L 3944 0 
L 2356 0 
L 2356 331 
L 2853 331 
L 2853 1931 
Q 2853 2541 2703 2767 
Q 2553 2994 2175 2994 
Q 1775 2994 1565 2701 
Q 1356 2409 1356 1850 
L 1356 331 
L 1856 331 
L 1856 0 
L 263 0 
z
" transform="scale(0.015625)"/>
        <path id="DejaVuSerif-72" d="M 3059 3328 
L 3059 2497 
L 2728 2497 
Q 2713 2744 2591 2866 
Q 2469 2988 2234 2988 
Q 1809 2988 1582 2694 
Q 1356 2400 1356 1850 
L 1356 331 
L 2022 331 
L 2022 0 
L 263 0 
L 263 331 
L 781 331 
L 781 2994 
L 231 2994 
L 231 3322 
L 1356 3322 
L 1356 2731 
Q 1525 3078 1790 3245 
Q 2056 3413 2438 3413 
Q 2578 3413 2733 3391 
Q 2888 3369 3059 3328 
z
" transform="scale(0.015625)"/>
        <path id="DejaVuSerif-79" d="M 1381 -609 
L 1600 -56 
L 359 2988 
L -19 2988 
L -19 3322 
L 1509 3322 
L 1509 2988 
L 978 2988 
L 1913 703 
L 2847 2988 
L 2350 2988 
L 2350 3322 
L 3597 3322 
L 3597 2988 
L 3225 2988 
L 1703 -750 
Q 1547 -1138 1356 -1280 
Q 1166 -1422 819 -1422 
Q 672 -1422 517 -1397 
Q 363 -1372 206 -1325 
L 206 -691 
L 500 -691 
Q 519 -903 608 -995 
Q 697 -1088 884 -1088 
Q 1056 -1088 1161 -992 
Q 1266 -897 1381 -609 
z
" transform="scale(0.015625)"/>
       </defs>
       <use xlink:href="#DejaVuSerif-42"/>
       <use xlink:href="#DejaVuSerif-69" transform="translate(73.486328 0)"/>
       <use xlink:href="#DejaVuSerif-6e" transform="translate(105.46875 0)"/>
       <use xlink:href="#DejaVuSerif-61" transform="translate(169.873047 0)"/>
       <use xlink:href="#DejaVuSerif-72" transform="translate(229.492188 0)"/>
       <use xlink:href="#DejaVuSerif-79" transform="translate(277.294922 0)"/>
      </g>
     </g>
    </g>
   </g>
   <g id="matplotlib.axis_2">
    <g id="ytick_1">
     <g id="line2d_3">
      <path d="M 40.454844 330.386281 
L 561.729844 330.386281 
" clip-path="url(#p5817189707)" style="fill: none; stroke: #b0b0b0; stroke-opacity: 0.3; stroke-width: 0.8; stroke-linecap: square"/>
     </g>
     <g id="line2d_4">
      <defs>
       <path id="me0693b411e" d="M 0 0 
L -3.5 0 
" style="stroke: #000000; stroke-width: 0.8"/>
      </defs>
      <g>
       <use xlink:href="#me0693b411e" x="40.454844" y="330.386281" style="stroke: #000000; stroke-width: 0.8"/>
      </g>
     </g>
     <g id="text_3">
      <!-- 0 -->
      <g transform="translate(27.728594 333.805578) scale(0.09 -0.09)">
       <defs>
        <path id="DejaVuSerif-30" d="M 2034 219 
Q 2513 219 2750 744 
Q 2988 1269 2988 2328 
Q 2988 3391 2750 3916 
Q 2513 4441 2034 4441 
Q 1556 4441 1318 3916 
Q 1081 3391 1081 2328 
Q 1081 1269 1318 744 
Q 1556 219 2034 219 
z
M 2034 -91 
Q 1275 -91 848 546 
Q 422 1184 422 2328 
Q 422 3475 848 4112 
Q 1275 4750 2034 4750 
Q 2797 4750 3222 4112 
Q 3647 3475 3647 2328 
Q 3647 1184 3222 546 
Q 2797 -91 2034 -91 
z
" transform="scale(0.015625)"/>
       </defs>
       <use xlink:href="#DejaVuSerif-30"/>
      </g>
     </g>
    </g>
    <g id="ytick_2">
     <g id="line2d_5">
      <path d="M 40.454844 289.029155 
L 561.729844 289.029155 
" clip-path="url(#p5817189707)" style="fill: none; stroke: #b0b0b0; stroke-opacity: 0.3; stroke-width: 0.8; stroke-linecap: square"/>
     </g>
     <g id="line2d_6">
      <g>
       <use xlink:href="#me0693b411e" x="40.454844" y="289.029155" style="stroke: #000000; stroke-width: 0.8"/>
      </g>
     </g>
     <g id="text_4">
      <!-- 10 -->
      <g transform="translate(22.002344 292.448452) scale(0.09 -0.09)">
       <defs>
        <path id="DejaVuSerif-31" d="M 909 0 
L 909 331 
L 1722 331 
L 1722 4213 
L 781 3603 
L 781 4013 
L 1919 4750 
L 2350 4750 
L 2350 331 
L 3163 331 
L 3163 0 
L 909 0 
z
" transform="scale(0.015625)"/>
       </defs>
       <use xlink:href="#DejaVuSerif-31"/>
       <use xlink:href="#DejaVuSerif-30" transform="translate(63.623047 0)"/>
      </g>
     </g>
    </g>
    <g id="ytick_3">
     <g id="line2d_7">
      <path d="M 40.454844 247.672029 
L 561.729844 247.672029 
" clip-path="url(#p5817189707)" style="fill: none; stroke: #b0b0b0; stroke-opacity: 0.3; stroke-width: 0.8; stroke-linecap: square"/>
     </g>
     <g id="line2d_8">
      <g>
       <use xlink:href="#me0693b411e" x="40.454844" y="247.672029" style="stroke: #000000; stroke-width: 0.8"/>
      </g>
     </g>
     <g id="text_5">
      <!-- 20 -->
      <g transform="translate(22.002344 251.091326) scale(0.09 -0.09)">
       <defs>
        <path id="DejaVuSerif-32" d="M 819 3553 
L 469 3553 
L 469 4384 
Q 803 4563 1142 4656 
Q 1481 4750 1806 4750 
Q 2534 4750 2956 4397 
Q 3378 4044 3378 3438 
Q 3378 2753 2422 1800 
Q 2347 1728 2309 1691 
L 1131 513 
L 3078 513 
L 3078 1088 
L 3444 1088 
L 3444 0 
L 434 0 
L 434 341 
L 1850 1753 
Q 2319 2222 2519 2614 
Q 2719 3006 2719 3438 
Q 2719 3909 2473 4175 
Q 2228 4441 1797 4441 
Q 1350 4441 1106 4219 
Q 863 3997 819 3553 
z
" transform="scale(0.015625)"/>
       </defs>
       <use xlink:href="#DejaVuSerif-32"/>
       <use xlink:href="#DejaVuSerif-30" transform="translate(63.623047 0)"/>
      </g>
     </g>
    </g>
    <g id="ytick_4">
     <g id="line2d_9">
      <path d="M 40.454844 206.314903 
L 561.729844 206.314903 
" clip-path="url(#p5817189707)" style="fill: none; stroke: #b0b0b0; stroke-opacity: 0.3; stroke-width: 0.8; stroke-linecap: square"/>
     </g>
     <g id="line2d_10">
      <g>
       <use xlink:href="#me0693b411e" x="40.454844" y="206.314903" style="stroke: #000000; stroke-width: 0.8"/>
      </g>
     </g>
     <g id="text_6">
      <!-- 30 -->
      <g transform="translate(22.002344 209.734199) scale(0.09 -0.09)">
       <defs>
        <path id="DejaVuSerif-33" d="M 622 4469 
Q 988 4606 1323 4678 
Q 1659 4750 1953 4750 
Q 2638 4750 3022 4454 
Q 3406 4159 3406 3634 
Q 3406 3213 3140 2930 
Q 2875 2647 2388 2547 
Q 2963 2466 3280 2130 
Q 3597 1794 3597 1259 
Q 3597 606 3158 257 
Q 2719 -91 1894 -91 
Q 1528 -91 1179 -12 
Q 831 66 488 225 
L 488 1131 
L 838 1131 
Q 869 681 1141 450 
Q 1413 219 1906 219 
Q 2384 219 2661 495 
Q 2938 772 2938 1253 
Q 2938 1803 2653 2086 
Q 2369 2369 1819 2369 
L 1522 2369 
L 1522 2688 
L 1678 2688 
Q 2225 2688 2498 2914 
Q 2772 3141 2772 3597 
Q 2772 4006 2547 4223 
Q 2322 4441 1900 4441 
Q 1478 4441 1245 4241 
Q 1013 4041 972 3647 
L 622 3647 
L 622 4469 
z
" transform="scale(0.015625)"/>
       </defs>
       <use xlink:href="#DejaVuSerif-33"/>
       <use xlink:href="#DejaVuSerif-30" transform="translate(63.623047 0)"/>
      </g>
     </g>
    </g>
    <g id="ytick_5">
     <g id="line2d_11">
      <path d="M 40.454844 164.957776 
L 561.729844 164.957776 
" clip-path="url(#p5817189707)" style="fill: none; stroke: #b0b0b0; stroke-opacity: 0.3; stroke-width: 0.8; stroke-linecap: square"/>
     </g>
     <g id="line2d_12">
      <g>
       <use xlink:href="#me0693b411e" x="40.454844" y="164.957776" style="stroke: #000000; stroke-width: 0.8"/>
      </g>
     </g>
     <g id="text_7">
      <!-- 40 -->
      <g transform="translate(22.002344 168.377073) scale(0.09 -0.09)">
       <defs>
        <path id="DejaVuSerif-34" d="M 2234 1581 
L 2234 4063 
L 641 1581 
L 2234 1581 
z
M 3609 0 
L 1484 0 
L 1484 331 
L 2234 331 
L 2234 1247 
L 197 1247 
L 197 1588 
L 2241 4750 
L 2859 4750 
L 2859 1581 
L 3750 1581 
L 3750 1247 
L 2859 1247 
L 2859 331 
L 3609 331 
L 3609 0 
z
" transform="scale(0.015625)"/>
       </defs>
       <use xlink:href="#DejaVuSerif-34"/>
       <use xlink:href="#DejaVuSerif-30" transform="translate(63.623047 0)"/>
      </g>
     </g>
    </g>
    <g id="ytick_6">
     <g id="line2d_13">
      <path d="M 40.454844 123.60065 
L 561.729844 123.60065 
" clip-path="url(#p5817189707)" style="fill: none; stroke: #b0b0b0; stroke-opacity: 0.3; stroke-width: 0.8; stroke-linecap: square"/>
     </g>
     <g id="line2d_14">
      <g>
       <use xlink:href="#me0693b411e" x="40.454844" y="123.60065" style="stroke: #000000; stroke-width: 0.8"/>
      </g>
     </g>
     <g id="text_8">
      <!-- 50 -->
      <g transform="translate(22.002344 127.019947) scale(0.09 -0.09)">
       <defs>
        <path id="DejaVuSerif-35" d="M 3219 4666 
L 3219 4153 
L 1081 4153 
L 1081 2816 
Q 1244 2928 1461 2984 
Q 1678 3041 1947 3041 
Q 2703 3041 3140 2622 
Q 3578 2203 3578 1478 
Q 3578 738 3136 323 
Q 2694 -91 1894 -91 
Q 1572 -91 1234 -12 
Q 897 66 544 225 
L 544 1131 
L 897 1131 
Q 925 688 1179 453 
Q 1434 219 1894 219 
Q 2388 219 2653 544 
Q 2919 869 2919 1478 
Q 2919 2084 2655 2407 
Q 2391 2731 1894 2731 
Q 1613 2731 1398 2631 
Q 1184 2531 1019 2322 
L 750 2322 
L 750 4666 
L 3219 4666 
z
" transform="scale(0.015625)"/>
       </defs>
       <use xlink:href="#DejaVuSerif-35"/>
       <use xlink:href="#DejaVuSerif-30" transform="translate(63.623047 0)"/>
      </g>
     </g>
    </g>
    <g id="ytick_7">
     <g id="line2d_15">
      <path d="M 40.454844 82.243524 
L 561.729844 82.243524 
" clip-path="url(#p5817189707)" style="fill: none; stroke: #b0b0b0; stroke-opacity: 0.3; stroke-width: 0.8; stroke-linecap: square"/>
     </g>
     <g id="line2d_16">
      <g>
       <use xlink:href="#me0693b411e" x="40.454844" y="82.243524" style="stroke: #000000; stroke-width: 0.8"/>
      </g>
     </g>
     <g id="text_9">
      <!-- 60 -->
      <g transform="translate(22.002344 85.662821) scale(0.09 -0.09)">
       <defs>
        <path id="DejaVuSerif-36" d="M 2094 219 
Q 2534 219 2771 542 
Q 3009 866 3009 1472 
Q 3009 2078 2771 2401 
Q 2534 2725 2094 2725 
Q 1647 2725 1412 2412 
Q 1178 2100 1178 1509 
Q 1178 888 1415 553 
Q 1653 219 2094 219 
z
M 1075 2569 
Q 1288 2803 1556 2918 
Q 1825 3034 2163 3034 
Q 2859 3034 3264 2615 
Q 3669 2197 3669 1472 
Q 3669 763 3233 336 
Q 2797 -91 2069 -91 
Q 1278 -91 853 498 
Q 428 1088 428 2181 
Q 428 3406 931 4078 
Q 1434 4750 2350 4750 
Q 2597 4750 2869 4703 
Q 3141 4656 3425 4563 
L 3425 3794 
L 3072 3794 
Q 3034 4109 2831 4275 
Q 2628 4441 2284 4441 
Q 1678 4441 1381 3981 
Q 1084 3522 1075 2569 
z
" transform="scale(0.015625)"/>
       </defs>
       <use xlink:href="#DejaVuSerif-36"/>
       <use xlink:href="#DejaVuSerif-30" transform="translate(63.623047 0)"/>
      </g>
     </g>
    </g>
    <g id="ytick_8">
     <g id="line2d_17">
      <path d="M 40.454844 40.886398 
L 561.729844 40.886398 
" clip-path="url(#p5817189707)" style="fill: none; stroke: #b0b0b0; stroke-opacity: 0.3; stroke-width: 0.8; stroke-linecap: square"/>
     </g>
     <g id="line2d_18">
      <g>
       <use xlink:href="#me0693b411e" x="40.454844" y="40.886398" style="stroke: #000000; stroke-width: 0.8"/>
      </g>
     </g>
     <g id="text_10">
      <!-- 70 -->
      <g transform="translate(22.002344 44.305695) scale(0.09 -0.09)">
       <defs>
        <path id="DejaVuSerif-37" d="M 3609 4347 
L 1784 0 
L 1319 0 
L 3059 4153 
L 903 4153 
L 903 3578 
L 538 3578 
L 538 4666 
L 3609 4666 
L 3609 4347 
z
" transform="scale(0.015625)"/>
       </defs>
       <use xlink:href="#DejaVuSerif-37"/>
       <use xlink:href="#DejaVuSerif-30" transform="translate(63.623047 0)"/>
      </g>
     </g>
    </g>
    <g id="text_11">
     <!-- Median latency per file (ms) -->
     <g transform="translate(15.558281 260.967562) rotate(-90) scale(0.11 -0.11)">
      <defs>
       <path id="DejaVuSerif-4d" d="M 353 0 
L 353 331 
L 947 331 
L 947 4331 
L 319 4331 
L 319 4666 
L 1678 4666 
L 3316 1344 
L 4953 4666 
L 6228 4666 
L 6228 4331 
L 5606 4331 
L 5606 331 
L 6203 331 
L 6203 0 
L 4378 0 
L 4378 331 
L 4972 331 
L 4972 3938 
L 3372 684 
L 2931 684 
L 1331 3938 
L 1331 331 
L 1925 331 
L 1925 0 
L 353 0 
z
" transform="scale(0.015625)"/>
       <path id="DejaVuSerif-64" d="M 3359 331 
L 3909 331 
L 3909 0 
L 2784 0 
L 2784 519 
Q 2616 206 2355 57 
Q 2094 -91 1709 -91 
Q 1097 -91 708 395 
Q 319 881 319 1663 
Q 319 2444 706 2928 
Q 1094 3413 1709 3413 
Q 2094 3413 2355 3264 
Q 2616 3116 2784 2803 
L 2784 4531 
L 2241 4531 
L 2241 4863 
L 3359 4863 
L 3359 331 
z
M 2784 1497 
L 2784 1825 
Q 2784 2422 2554 2737 
Q 2325 3053 1888 3053 
Q 1444 3053 1217 2703 
Q 991 2353 991 1663 
Q 991 975 1217 622 
Q 1444 269 1888 269 
Q 2325 269 2554 583 
Q 2784 897 2784 1497 
z
" transform="scale(0.015625)"/>
       <path id="DejaVuSerif-20" transform="scale(0.015625)"/>
       <path id="DejaVuSerif-6c" d="M 1313 331 
L 1856 331 
L 1856 0 
L 184 0 
L 184 331 
L 738 331 
L 738 4531 
L 184 4531 
L 184 4863 
L 1313 4863 
L 1313 331 
z
" transform="scale(0.015625)"/>
       <path id="DejaVuSerif-74" d="M 691 2988 
L 184 2988 
L 184 3322 
L 691 3322 
L 691 4353 
L 1269 4353 
L 1269 3322 
L 2350 3322 
L 2350 2988 
L 1269 2988 
L 1269 878 
Q 1269 456 1350 337 
Q 1431 219 1650 219 
Q 1875 219 1978 351 
Q 2081 484 2088 781 
L 2522 781 
Q 2497 328 2275 118 
Q 2053 -91 1600 -91 
Q 1103 -91 897 129 
Q 691 350 691 878 
L 691 2988 
z
" transform="scale(0.015625)"/>
       <path id="DejaVuSerif-63" d="M 3291 997 
Q 3169 466 2822 187 
Q 2475 -91 1925 -91 
Q 1200 -91 759 389 
Q 319 869 319 1663 
Q 319 2459 759 2936 
Q 1200 3413 1925 3413 
Q 2241 3413 2553 3339 
Q 2866 3266 3181 3116 
L 3181 2266 
L 2847 2266 
Q 2781 2703 2561 2903 
Q 2341 3103 1931 3103 
Q 1466 3103 1228 2742 
Q 991 2381 991 1663 
Q 991 944 1227 581 
Q 1463 219 1931 219 
Q 2303 219 2525 412 
Q 2747 606 2828 997 
L 3291 997 
z
" transform="scale(0.015625)"/>
       <path id="DejaVuSerif-70" d="M 1313 1825 
L 1313 1497 
Q 1313 897 1542 583 
Q 1772 269 2209 269 
Q 2650 269 2876 622 
Q 3103 975 3103 1663 
Q 3103 2353 2876 2703 
Q 2650 3053 2209 3053 
Q 1772 3053 1542 2737 
Q 1313 2422 1313 1825 
z
M 738 2988 
L 184 2988 
L 184 3322 
L 1313 3322 
L 1313 2803 
Q 1481 3116 1742 3264 
Q 2003 3413 2388 3413 
Q 3000 3413 3387 2928 
Q 3775 2444 3775 1663 
Q 3775 881 3387 395 
Q 3000 -91 2388 -91 
Q 2003 -91 1742 57 
Q 1481 206 1313 519 
L 1313 -997 
L 1856 -997 
L 1856 -1331 
L 184 -1331 
L 184 -997 
L 738 -997 
L 738 2988 
z
" transform="scale(0.015625)"/>
       <path id="DejaVuSerif-66" d="M 2753 4078 
L 2450 4078 
Q 2447 4313 2317 4434 
Q 2188 4556 1941 4556 
Q 1619 4556 1487 4379 
Q 1356 4203 1356 3750 
L 1356 3322 
L 2284 3322 
L 2284 2988 
L 1356 2988 
L 1356 331 
L 2094 331 
L 2094 0 
L 231 0 
L 231 331 
L 781 331 
L 781 2988 
L 231 2988 
L 231 3322 
L 781 3322 
L 781 3738 
Q 781 4294 1070 4578 
Q 1359 4863 1919 4863 
Q 2128 4863 2337 4825 
Q 2547 4788 2753 4709 
L 2753 4078 
z
" transform="scale(0.015625)"/>
       <path id="DejaVuSerif-28" d="M 2041 -997 
Q 1281 -656 893 83 
Q 506 822 506 1931 
Q 506 3044 893 3783 
Q 1281 4522 2041 4863 
L 2041 4556 
Q 1559 4225 1350 3623 
Q 1141 3022 1141 1931 
Q 1141 844 1350 242 
Q 1559 -359 2041 -691 
L 2041 -997 
z
" transform="scale(0.015625)"/>
       <path id="DejaVuSerif-29" d="M 453 -997 
L 453 -691 
Q 934 -359 1145 242 
Q 1356 844 1356 1931 
Q 1356 3022 1145 3623 
Q 934 4225 453 4556 
L 453 4863 
Q 1216 4522 1603 3783 
Q 1991 3044 1991 1931 
Q 1991 822 1603 83 
Q 1216 -656 453 -997 
z
" transform="scale(0.015625)"/>
      </defs>
      <use xlink:href="#DejaVuSerif-4d"/>
      <use xlink:href="#DejaVuSerif-65" transform="translate(102.392578 0)"/>
      <use xlink:href="#DejaVuSerif-64" transform="translate(161.572266 0)"/>
      <use xlink:href="#DejaVuSerif-69" transform="translate(225.585938 0)"/>
      <use xlink:href="#DejaVuSerif-61" transform="translate(257.568359 0)"/>
      <use xlink:href="#DejaVuSerif-6e" transform="translate(317.1875 0)"/>
      <use xlink:href="#DejaVuSerif-20" transform="translate(381.591797 0)"/>
      <use xlink:href="#DejaVuSerif-6c" transform="translate(413.378906 0)"/>
      <use xlink:href="#DejaVuSerif-61" transform="translate(445.361328 0)"/>
      <use xlink:href="#DejaVuSerif-74" transform="translate(504.980469 0)"/>
      <use xlink:href="#DejaVuSerif-65" transform="translate(545.166016 0)"/>
      <use xlink:href="#DejaVuSerif-6e" transform="translate(604.345703 0)"/>
      <use xlink:href="#DejaVuSerif-63" transform="translate(668.75 0)"/>
      <use xlink:href="#DejaVuSerif-79" transform="translate(724.755859 0)"/>
      <use xlink:href="#DejaVuSerif-20" transform="translate(781.25 0)"/>
      <use xlink:href="#DejaVuSerif-70" transform="translate(813.037109 0)"/>
      <use xlink:href="#DejaVuSerif-65" transform="translate(877.050781 0)"/>
      <use xlink:href="#DejaVuSerif-72" transform="translate(936.230469 0)"/>
      <use xlink:href="#DejaVuSerif-20" transform="translate(984.033203 0)"/>
      <use xlink:href="#DejaVuSerif-66" transform="translate(1015.820312 0)"/>
      <use xlink:href="#DejaVuSerif-69" transform="translate(1052.832031 0)"/>
      <use xlink:href="#DejaVuSerif-6c" transform="translate(1084.814453 0)"/>
      <use xlink:href="#DejaVuSerif-65" transform="translate(1116.796875 0)"/>
      <use xlink:href="#DejaVuSerif-20" transform="translate(1175.976562 0)"/>
      <use xlink:href="#DejaVuSerif-28" transform="translate(1207.763672 0)"/>
      <use xlink:href="#DejaVuSerif-6d" transform="translate(1246.777344 0)"/>
      <use xlink:href="#DejaVuSerif-73" transform="translate(1341.601562 0)"/>
      <use xlink:href="#DejaVuSerif-29" transform="translate(1392.919922 0)"/>
     </g>
    </g>
   </g>
   <g id="patch_11">
    <path d="M 40.454844 330.386281 
L 40.454844 34.032281 
" style="fill: none; stroke: #000000; stroke-width: 0.8; stroke-linejoin: miter; stroke-linecap: square"/>
   </g>
   <g id="patch_12">
    <path d="M 40.454844 330.386281 
L 561.729844 330.386281 
" style="fill: none; stroke: #000000; stroke-width: 0.8; stroke-linejoin: miter; stroke-linecap: square"/>
   </g>
   <g id="text_12">
    <!-- Crypto: 99.3% -->
    <g style="fill: #8b0000" transform="translate(113.995848 152.108117) scale(0.08 -0.08)">
     <defs>
      <path id="DejaVuSerif-43" d="M 4513 1234 
Q 4306 581 3820 245 
Q 3334 -91 2591 -91 
Q 2134 -91 1743 65 
Q 1353 222 1050 525 
Q 700 875 529 1320 
Q 359 1766 359 2328 
Q 359 3416 987 4083 
Q 1616 4750 2644 4750 
Q 3025 4750 3456 4650 
Q 3888 4550 4384 4347 
L 4384 3272 
L 4031 3272 
Q 3916 3859 3567 4137 
Q 3219 4416 2591 4416 
Q 1844 4416 1459 3886 
Q 1075 3356 1075 2328 
Q 1075 1303 1459 773 
Q 1844 244 2591 244 
Q 3113 244 3450 492 
Q 3788 741 3938 1234 
L 4513 1234 
z
" transform="scale(0.015625)"/>
      <path id="DejaVuSerif-6f" d="M 1925 219 
Q 2388 219 2623 584 
Q 2859 950 2859 1663 
Q 2859 2375 2623 2739 
Q 2388 3103 1925 3103 
Q 1463 3103 1227 2739 
Q 991 2375 991 1663 
Q 991 950 1228 584 
Q 1466 219 1925 219 
z
M 1925 -91 
Q 1200 -91 759 389 
Q 319 869 319 1663 
Q 319 2456 758 2934 
Q 1197 3413 1925 3413 
Q 2653 3413 3092 2934 
Q 3531 2456 3531 1663 
Q 3531 869 3092 389 
Q 2653 -91 1925 -91 
z
" transform="scale(0.015625)"/>
      <path id="DejaVuSerif-3a" d="M 666 325 
Q 666 500 786 622 
Q 906 744 1081 744 
Q 1256 744 1376 622 
Q 1497 500 1497 325 
Q 1497 150 1378 29 
Q 1259 -91 1081 -91 
Q 903 -91 784 29 
Q 666 150 666 325 
z
M 666 2363 
Q 666 2538 786 2658 
Q 906 2778 1081 2778 
Q 1259 2778 1378 2659 
Q 1497 2541 1497 2363 
Q 1497 2184 1378 2065 
Q 1259 1947 1081 1947 
Q 906 1947 786 2067 
Q 666 2188 666 2363 
z
" transform="scale(0.015625)"/>
      <path id="DejaVuSerif-39" d="M 2994 2091 
Q 2784 1856 2512 1740 
Q 2241 1625 1900 1625 
Q 1206 1625 804 2044 
Q 403 2463 403 3188 
Q 403 3897 839 4323 
Q 1275 4750 2003 4750 
Q 2794 4750 3217 4161 
Q 3641 3572 3641 2478 
Q 3641 1253 3137 581 
Q 2634 -91 1722 -91 
Q 1475 -91 1203 -44 
Q 931 3 647 97 
L 647 872 
L 997 872 
Q 1038 556 1241 387 
Q 1444 219 1784 219 
Q 2391 219 2687 676 
Q 2984 1134 2994 2091 
z
M 1978 4441 
Q 1534 4441 1298 4117 
Q 1063 3794 1063 3188 
Q 1063 2581 1298 2256 
Q 1534 1931 1978 1931 
Q 2422 1931 2658 2245 
Q 2894 2559 2894 3150 
Q 2894 3772 2656 4106 
Q 2419 4441 1978 4441 
z
" transform="scale(0.015625)"/>
      <path id="DejaVuSerif-2e" d="M 603 325 
Q 603 500 722 622 
Q 841 744 1019 744 
Q 1191 744 1312 622 
Q 1434 500 1434 325 
Q 1434 153 1312 31 
Q 1191 -91 1019 -91 
Q 841 -91 722 29 
Q 603 150 603 325 
z
" transform="scale(0.015625)"/>
      <path id="DejaVuSerif-25" d="M 1434 4459 
Q 1159 4459 1004 4200 
Q 850 3941 850 3475 
Q 850 3016 1008 2753 
Q 1166 2491 1434 2491 
Q 1700 2491 1854 2752 
Q 2009 3013 2009 3475 
Q 2009 3938 1854 4198 
Q 1700 4459 1434 4459 
z
M 4653 2169 
Q 4381 2169 4226 1906 
Q 4072 1644 4072 1178 
Q 4072 719 4228 458 
Q 4384 197 4653 197 
Q 4922 197 5075 458 
Q 5228 719 5228 1178 
Q 5228 1641 5073 1905 
Q 4919 2169 4653 2169 
z
M 4653 2450 
Q 5147 2450 5437 2106 
Q 5728 1763 5728 1178 
Q 5728 594 5436 251 
Q 5144 -91 4653 -91 
Q 4153 -91 3862 251 
Q 3572 594 3572 1178 
Q 3572 1766 3864 2108 
Q 4156 2450 4653 2450 
z
M 4263 4750 
L 4738 4750 
L 1819 -91 
L 1344 -91 
L 4263 4750 
z
M 1428 4750 
Q 1922 4750 2215 4408 
Q 2509 4066 2509 3481 
Q 2509 2891 2217 2550 
Q 1925 2209 1428 2209 
Q 931 2209 642 2551 
Q 353 2894 353 3481 
Q 353 4063 643 4406 
Q 934 4750 1428 4750 
z
" transform="scale(0.015625)"/>
     </defs>
     <use xlink:href="#DejaVuSerif-43"/>
     <use xlink:href="#DejaVuSerif-72" transform="translate(76.513672 0)"/>
     <use xlink:href="#DejaVuSerif-79" transform="translate(124.316406 0)"/>
     <use xlink:href="#DejaVuSerif-70" transform="translate(180.810547 0)"/>
     <use xlink:href="#DejaVuSerif-74" transform="translate(244.824219 0)"/>
     <use xlink:href="#DejaVuSerif-6f" transform="translate(285.009766 0)"/>
     <use xlink:href="#DejaVuSerif-3a" transform="translate(345.214844 0)"/>
     <use xlink:href="#DejaVuSerif-20" transform="translate(378.90625 0)"/>
     <use xlink:href="#DejaVuSerif-39" transform="translate(410.693359 0)"/>
     <use xlink:href="#DejaVuSerif-39" transform="translate(474.316406 0)"/>
     <use xlink:href="#DejaVuSerif-2e" transform="translate(537.939453 0)"/>
     <use xlink:href="#DejaVuSerif-33" transform="translate(569.726562 0)"/>
     <use xlink:href="#DejaVuSerif-25" transform="translate(633.349609 0)"/>
    </g>
   </g>
   <g id="text_13">
    <!-- Crypto: 100.4% -->
    <g style="fill: #8b0000" transform="translate(427.37509 102.008095) scale(0.08 -0.08)">
     <use xlink:href="#DejaVuSerif-43"/>
     <use xlink:href="#DejaVuSerif-72" transform="translate(76.513672 0)"/>
     <use xlink:href="#DejaVuSerif-79" transform="translate(124.316406 0)"/>
     <use xlink:href="#DejaVuSerif-70" transform="translate(180.810547 0)"/>
     <use xlink:href="#DejaVuSerif-74" transform="translate(244.824219 0)"/>
     <use xlink:href="#DejaVuSerif-6f" transform="translate(285.009766 0)"/>
     <use xlink:href="#DejaVuSerif-3a" transform="translate(345.214844 0)"/>
     <use xlink:href="#DejaVuSerif-20" transform="translate(378.90625 0)"/>
     <use xlink:href="#DejaVuSerif-31" transform="translate(410.693359 0)"/>
     <use xlink:href="#DejaVuSerif-30" transform="translate(474.316406 0)"/>
     <use xlink:href="#DejaVuSerif-30" transform="translate(537.939453 0)"/>
     <use xlink:href="#DejaVuSerif-2e" transform="translate(601.5625 0)"/>
     <use xlink:href="#DejaVuSerif-34" transform="translate(633.349609 0)"/>
     <use xlink:href="#DejaVuSerif-25" transform="translate(696.972656 0)"/>
    </g>
   </g>
   <g id="text_14">
    <!-- Figure 6 — Per-layer latency breakdown by file type -->
    <g transform="translate(155.495312 15.558281) scale(0.11 -0.11)">
     <defs>
      <path id="DejaVuSerif-46" d="M 353 0 
L 353 331 
L 947 331 
L 947 4331 
L 353 4331 
L 353 4666 
L 4172 4666 
L 4172 3628 
L 3788 3628 
L 3788 4281 
L 1581 4281 
L 1581 2719 
L 3175 2719 
L 3175 3303 
L 3559 3303 
L 3559 1753 
L 3175 1753 
L 3175 2338 
L 1581 2338 
L 1581 331 
L 2328 331 
L 2328 0 
L 353 0 
z
" transform="scale(0.015625)"/>
      <path id="DejaVuSerif-75" d="M 2266 3322 
L 3341 3322 
L 3341 331 
L 3884 331 
L 3884 0 
L 2766 0 
L 2766 588 
Q 2606 256 2353 82 
Q 2100 -91 1766 -91 
Q 1213 -91 952 223 
Q 691 538 691 1209 
L 691 2988 
L 172 2988 
L 172 3322 
L 1269 3322 
L 1269 1388 
Q 1269 781 1417 556 
Q 1566 331 1947 331 
Q 2347 331 2556 625 
Q 2766 919 2766 1478 
L 2766 2988 
L 2266 2988 
L 2266 3322 
z
" transform="scale(0.015625)"/>
      <path id="DejaVuSerif-2014" d="M 281 1906 
L 6119 1906 
L 6119 1491 
L 281 1491 
L 281 1906 
z
" transform="scale(0.015625)"/>
      <path id="DejaVuSerif-50" d="M 1581 2375 
L 2406 2375 
Q 2872 2375 3115 2626 
Q 3359 2878 3359 3353 
Q 3359 3831 3115 4081 
Q 2872 4331 2406 4331 
L 1581 4331 
L 1581 2375 
z
M 353 0 
L 353 331 
L 947 331 
L 947 4331 
L 353 4331 
L 353 4666 
L 2559 4666 
Q 3259 4666 3668 4311 
Q 4078 3956 4078 3353 
Q 4078 2753 3668 2397 
Q 3259 2041 2559 2041 
L 1581 2041 
L 1581 331 
L 2303 331 
L 2303 0 
L 353 0 
z
" transform="scale(0.015625)"/>
      <path id="DejaVuSerif-2d" d="M 281 1959 
L 1881 1959 
L 1881 1472 
L 281 1472 
L 281 1959 
z
" transform="scale(0.015625)"/>
      <path id="DejaVuSerif-62" d="M 738 331 
L 738 4531 
L 184 4531 
L 184 4863 
L 1313 4863 
L 1313 2803 
Q 1481 3116 1742 3264 
Q 2003 3413 2388 3413 
Q 3000 3413 3387 2928 
Q 3775 2444 3775 1663 
Q 3775 881 3387 395 
Q 3000 -91 2388 -91 
Q 2003 -91 1742 57 
Q 1481 206 1313 519 
L 1313 0 
L 184 0 
L 184 331 
L 738 331 
z
M 1313 1497 
Q 1313 897 1542 583 
Q 1772 269 2209 269 
Q 2650 269 2876 622 
Q 3103 975 3103 1663 
Q 3103 2353 2876 2703 
Q 2650 3053 2209 3053 
Q 1772 3053 1542 2737 
Q 1313 2422 1313 1825 
L 1313 1497 
z
" transform="scale(0.015625)"/>
      <path id="DejaVuSerif-6b" d="M 1831 0 
L 219 0 
L 219 331 
L 738 331 
L 738 4531 
L 184 4531 
L 184 4863 
L 1313 4863 
L 1313 1697 
L 2713 2988 
L 2234 2988 
L 2234 3322 
L 3738 3322 
L 3738 2988 
L 3169 2988 
L 2181 2075 
L 3444 331 
L 3922 331 
L 3922 0 
L 2284 0 
L 2284 331 
L 2759 331 
L 1766 1697 
L 1313 1275 
L 1313 331 
L 1831 331 
L 1831 0 
z
" transform="scale(0.015625)"/>
      <path id="DejaVuSerif-77" d="M 3072 3322 
L 3922 728 
L 4672 2988 
L 4191 2988 
L 4191 3322 
L 5394 3322 
L 5394 2988 
L 5025 2988 
L 4038 0 
L 3559 0 
L 2741 2484 
L 1919 0 
L 1459 0 
L 475 2988 
L 103 2988 
L 103 3322 
L 1606 3322 
L 1606 2988 
L 1069 2988 
L 1813 728 
L 2669 3322 
L 3072 3322 
z
" transform="scale(0.015625)"/>
     </defs>
     <use xlink:href="#DejaVuSerif-46"/>
     <use xlink:href="#DejaVuSerif-69" transform="translate(69.384766 0)"/>
     <use xlink:href="#DejaVuSerif-67" transform="translate(101.367188 0)"/>
     <use xlink:href="#DejaVuSerif-75" transform="translate(165.380859 0)"/>
     <use xlink:href="#DejaVuSerif-72" transform="translate(229.785156 0)"/>
     <use xlink:href="#DejaVuSerif-65" transform="translate(277.587891 0)"/>
     <use xlink:href="#DejaVuSerif-20" transform="translate(336.767578 0)"/>
     <use xlink:href="#DejaVuSerif-36" transform="translate(368.554688 0)"/>
     <use xlink:href="#DejaVuSerif-20" transform="translate(432.177734 0)"/>
     <use xlink:href="#DejaVuSerif-2014" transform="translate(463.964844 0)"/>
     <use xlink:href="#DejaVuSerif-20" transform="translate(563.964844 0)"/>
     <use xlink:href="#DejaVuSerif-50" transform="translate(595.751953 0)"/>
     <use xlink:href="#DejaVuSerif-65" transform="translate(658.537109 0)"/>
     <use xlink:href="#DejaVuSerif-72" transform="translate(717.716797 0)"/>
     <use xlink:href="#DejaVuSerif-2d" transform="translate(765.519531 0)"/>
     <use xlink:href="#DejaVuSerif-6c" transform="translate(799.308594 0)"/>
     <use xlink:href="#DejaVuSerif-61" transform="translate(831.291016 0)"/>
     <use xlink:href="#DejaVuSerif-79" transform="translate(890.910156 0)"/>
     <use xlink:href="#DejaVuSerif-65" transform="translate(947.404297 0)"/>
     <use xlink:href="#DejaVuSerif-72" transform="translate(1006.583984 0)"/>
     <use xlink:href="#DejaVuSerif-20" transform="translate(1054.386719 0)"/>
     <use xlink:href="#DejaVuSerif-6c" transform="translate(1086.173828 0)"/>
     <use xlink:href="#DejaVuSerif-61" transform="translate(1118.15625 0)"/>
     <use xlink:href="#DejaVuSerif-74" transform="translate(1177.775391 0)"/>
     <use xlink:href="#DejaVuSerif-65" transform="translate(1217.960938 0)"/>
     <use xlink:href="#DejaVuSerif-6e" transform="translate(1277.140625 0)"/>
     <use xlink:href="#DejaVuSerif-63" transform="translate(1341.544922 0)"/>
     <use xlink:href="#DejaVuSerif-79" transform="translate(1397.550781 0)"/>
     <use xlink:href="#DejaVuSerif-20" transform="translate(1454.044922 0)"/>
     <use xlink:href="#DejaVuSerif-62" transform="translate(1485.832031 0)"/>
     <use xlink:href="#DejaVuSerif-72" transform="translate(1549.845703 0)"/>
     <use xlink:href="#DejaVuSerif-65" transform="translate(1597.648438 0)"/>
     <use xlink:href="#DejaVuSerif-61" transform="translate(1656.828125 0)"/>
     <use xlink:href="#DejaVuSerif-6b" transform="translate(1716.447266 0)"/>
     <use xlink:href="#DejaVuSerif-64" transform="translate(1777.042969 0)"/>
     <use xlink:href="#DejaVuSerif-6f" transform="translate(1841.056641 0)"/>
     <use xlink:href="#DejaVuSerif-77" transform="translate(1901.261719 0)"/>
     <use xlink:href="#DejaVuSerif-6e" transform="translate(1986.857422 0)"/>
     <use xlink:href="#DejaVuSerif-20" transform="translate(2051.261719 0)"/>
     <use xlink:href="#DejaVuSerif-62" transform="translate(2083.048828 0)"/>
     <use xlink:href="#DejaVuSerif-79" transform="translate(2147.0625 0)"/>
     <use xlink:href="#DejaVuSerif-20" transform="translate(2203.556641 0)"/>
     <use xlink:href="#DejaVuSerif-66" transform="translate(2235.34375 0)"/>
     <use xlink:href="#DejaVuSerif-69" transform="translate(2272.355469 0)"/>
     <use xlink:href="#DejaVuSerif-6c" transform="translate(2304.337891 0)"/>
     <use xlink:href="#DejaVuSerif-65" transform="translate(2336.320312 0)"/>
     <use xlink:href="#DejaVuSerif-20" transform="translate(2395.5 0)"/>
     <use xlink:href="#DejaVuSerif-74" transform="translate(2427.287109 0)"/>
     <use xlink:href="#DejaVuSerif-79" transform="translate(2467.472656 0)"/>
     <use xlink:href="#DejaVuSerif-70" transform="translate(2523.966797 0)"/>
     <use xlink:href="#DejaVuSerif-65" transform="translate(2587.980469 0)"/>
    </g>
    <!-- (direct crypto cost &lt; 20% of total; VAE and I/O dominate) -->
    <g transform="translate(140.221641 28.032281) scale(0.11 -0.11)">
     <defs>
      <path id="DejaVuSerif-3c" d="M 4684 3188 
L 1441 2003 
L 4684 825 
L 4684 294 
L 678 1747 
L 678 2266 
L 4684 3719 
L 4684 3188 
z
" transform="scale(0.015625)"/>
      <path id="DejaVuSerif-3b" d="M 231 -622 
Q 525 -406 662 -114 
Q 800 178 800 594 
L 800 709 
L 1416 709 
Q 1391 175 1164 -208 
Q 938 -591 481 -872 
L 231 -622 
z
M 678 2363 
Q 678 2538 798 2658 
Q 919 2778 1094 2778 
Q 1269 2778 1389 2656 
Q 1509 2534 1509 2363 
Q 1509 2188 1389 2067 
Q 1269 1947 1094 1947 
Q 919 1947 798 2067 
Q 678 2188 678 2363 
z
" transform="scale(0.015625)"/>
      <path id="DejaVuSerif-56" d="M 1119 4331 
L 2497 750 
L 3872 4331 
L 3347 4331 
L 3347 4666 
L 4716 4666 
L 4716 4331 
L 4263 4331 
L 2597 0 
L 2059 0 
L 403 4331 
L -63 4331 
L -63 4666 
L 1638 4666 
L 1638 4331 
L 1119 4331 
z
" transform="scale(0.015625)"/>
      <path id="DejaVuSerif-41" d="M 1281 1691 
L 2994 1691 
L 2138 3909 
L 1281 1691 
z
M -38 0 
L -38 331 
L 372 331 
L 2034 4666 
L 2559 4666 
L 4225 331 
L 4684 331 
L 4684 0 
L 2988 0 
L 2988 331 
L 3506 331 
L 3116 1356 
L 1153 1356 
L 763 331 
L 1275 331 
L 1275 0 
L -38 0 
z
" transform="scale(0.015625)"/>
      <path id="DejaVuSerif-45" d="M 353 0 
L 353 331 
L 947 331 
L 947 4331 
L 353 4331 
L 353 4666 
L 4109 4666 
L 4109 3628 
L 3725 3628 
L 3725 4281 
L 1581 4281 
L 1581 2719 
L 3109 2719 
L 3109 3303 
L 3494 3303 
L 3494 1753 
L 3109 1753 
L 3109 2338 
L 1581 2338 
L 1581 384 
L 3775 384 
L 3775 1038 
L 4159 1038 
L 4159 0 
L 353 0 
z
" transform="scale(0.015625)"/>
      <path id="DejaVuSerif-2f" d="M 1656 4666 
L 2156 4666 
L 500 -594 
L 0 -594 
L 1656 4666 
z
" transform="scale(0.015625)"/>
      <path id="DejaVuSerif-4f" d="M 2625 244 
Q 3391 244 3781 770 
Q 4172 1297 4172 2328 
Q 4172 3363 3781 3889 
Q 3391 4416 2625 4416 
Q 1856 4416 1465 3889 
Q 1075 3363 1075 2328 
Q 1075 1297 1465 770 
Q 1856 244 2625 244 
z
M 2625 -91 
Q 2150 -91 1751 65 
Q 1353 222 1050 525 
Q 700 875 529 1319 
Q 359 1763 359 2328 
Q 359 2894 529 3339 
Q 700 3784 1050 4134 
Q 1356 4441 1750 4595 
Q 2144 4750 2625 4750 
Q 3641 4750 4266 4084 
Q 4891 3419 4891 2328 
Q 4891 1769 4719 1320 
Q 4547 872 4197 525 
Q 3891 219 3497 64 
Q 3103 -91 2625 -91 
z
" transform="scale(0.015625)"/>
     </defs>
     <use xlink:href="#DejaVuSerif-28"/>
     <use xlink:href="#DejaVuSerif-64" transform="translate(39.013672 0)"/>
     <use xlink:href="#DejaVuSerif-69" transform="translate(103.027344 0)"/>
     <use xlink:href="#DejaVuSerif-72" transform="translate(135.009766 0)"/>
     <use xlink:href="#DejaVuSerif-65" transform="translate(182.8125 0)"/>
     <use xlink:href="#DejaVuSerif-63" transform="translate(241.992188 0)"/>
     <use xlink:href="#DejaVuSerif-74" transform="translate(297.998047 0)"/>
     <use xlink:href="#DejaVuSerif-20" transform="translate(338.183594 0)"/>
     <use xlink:href="#DejaVuSerif-63" transform="translate(369.970703 0)"/>
     <use xlink:href="#DejaVuSerif-72" transform="translate(425.976562 0)"/>
     <use xlink:href="#DejaVuSerif-79" transform="translate(473.779297 0)"/>
     <use xlink:href="#DejaVuSerif-70" transform="translate(530.273438 0)"/>
     <use xlink:href="#DejaVuSerif-74" transform="translate(594.287109 0)"/>
     <use xlink:href="#DejaVuSerif-6f" transform="translate(634.472656 0)"/>
     <use xlink:href="#DejaVuSerif-20" transform="translate(694.677734 0)"/>
     <use xlink:href="#DejaVuSerif-63" transform="translate(726.464844 0)"/>
     <use xlink:href="#DejaVuSerif-6f" transform="translate(782.470703 0)"/>
     <use xlink:href="#DejaVuSerif-73" transform="translate(842.675781 0)"/>
     <use xlink:href="#DejaVuSerif-74" transform="translate(893.994141 0)"/>
     <use xlink:href="#DejaVuSerif-20" transform="translate(934.179688 0)"/>
     <use xlink:href="#DejaVuSerif-3c" transform="translate(965.966797 0)"/>
     <use xlink:href="#DejaVuSerif-20" transform="translate(1049.755859 0)"/>
     <use xlink:href="#DejaVuSerif-32" transform="translate(1081.542969 0)"/>
     <use xlink:href="#DejaVuSerif-30" transform="translate(1145.166016 0)"/>
     <use xlink:href="#DejaVuSerif-25" transform="translate(1208.789062 0)"/>
     <use xlink:href="#DejaVuSerif-20" transform="translate(1303.808594 0)"/>
     <use xlink:href="#DejaVuSerif-6f" transform="translate(1335.595703 0)"/>
     <use xlink:href="#DejaVuSerif-66" transform="translate(1395.800781 0)"/>
     <use xlink:href="#DejaVuSerif-20" transform="translate(1432.8125 0)"/>
     <use xlink:href="#DejaVuSerif-74" transform="translate(1464.599609 0)"/>
     <use xlink:href="#DejaVuSerif-6f" transform="translate(1504.785156 0)"/>
     <use xlink:href="#DejaVuSerif-74" transform="translate(1564.990234 0)"/>
     <use xlink:href="#DejaVuSerif-61" transform="translate(1605.175781 0)"/>
     <use xlink:href="#DejaVuSerif-6c" transform="translate(1664.794922 0)"/>
     <use xlink:href="#DejaVuSerif-3b" transform="translate(1696.777344 0)"/>
     <use xlink:href="#DejaVuSerif-20" transform="translate(1730.46875 0)"/>
     <use xlink:href="#DejaVuSerif-56" transform="translate(1762.255859 0)"/>
     <use xlink:href="#DejaVuSerif-41" transform="translate(1827.722656 0)"/>
     <use xlink:href="#DejaVuSerif-45" transform="translate(1899.939453 0)"/>
     <use xlink:href="#DejaVuSerif-20" transform="translate(1972.9375 0)"/>
     <use xlink:href="#DejaVuSerif-61" transform="translate(2004.724609 0)"/>
     <use xlink:href="#DejaVuSerif-6e" transform="translate(2064.34375 0)"/>
     <use xlink:href="#DejaVuSerif-64" transform="translate(2128.748047 0)"/>
     <use xlink:href="#DejaVuSerif-20" transform="translate(2192.761719 0)"/>
     <use xlink:href="#DejaVuSerif-49" transform="translate(2224.548828 0)"/>
     <use xlink:href="#DejaVuSerif-2f" transform="translate(2264.050781 0)"/>
     <use xlink:href="#DejaVuSerif-4f" transform="translate(2297.742188 0)"/>
     <use xlink:href="#DejaVuSerif-20" transform="translate(2379.724609 0)"/>
     <use xlink:href="#DejaVuSerif-64" transform="translate(2411.511719 0)"/>
     <use xlink:href="#DejaVuSerif-6f" transform="translate(2475.525391 0)"/>
     <use xlink:href="#DejaVuSerif-6d" transform="translate(2535.730469 0)"/>
     <use xlink:href="#DejaVuSerif-69" transform="translate(2630.554688 0)"/>
     <use xlink:href="#DejaVuSerif-6e" transform="translate(2662.537109 0)"/>
     <use xlink:href="#DejaVuSerif-61" transform="translate(2726.941406 0)"/>
     <use xlink:href="#DejaVuSerif-74" transform="translate(2786.560547 0)"/>
     <use xlink:href="#DejaVuSerif-65" transform="translate(2826.746094 0)"/>
     <use xlink:href="#DejaVuSerif-29" transform="translate(2885.925781 0)"/>
    </g>
   </g>
   <g id="legend_1">
    <g id="patch_13">
     <path d="M 372.144844 95.074781 
L 555.429844 95.074781 
Q 557.229844 95.074781 557.229844 93.274781 
L 557.229844 40.332281 
Q 557.229844 38.532281 555.429844 38.532281 
L 372.144844 38.532281 
Q 370.344844 38.532281 370.344844 40.332281 
L 370.344844 93.274781 
Q 370.344844 95.074781 372.144844 95.074781 
z
" style="fill: #ffffff; opacity: 0.8; stroke: #cccccc; stroke-linejoin: miter"/>
    </g>
    <g id="patch_14">
     <path d="M 373.944844 48.970875 
L 391.944844 48.970875 
L 391.944844 42.670875 
L 373.944844 42.670875 
z
" style="fill: #4c72b0"/>
    </g>
    <g id="text_15">
     <!-- L_VAE (inference) -->
     <g transform="translate(399.144844 48.970875) scale(0.09 -0.09)">
      <defs>
       <path id="DejaVuSerif-4c" d="M 353 0 
L 353 331 
L 947 331 
L 947 4331 
L 353 4331 
L 353 4666 
L 2175 4666 
L 2175 4331 
L 1581 4331 
L 1581 384 
L 3713 384 
L 3713 1166 
L 4097 1166 
L 4097 0 
L 353 0 
z
" transform="scale(0.015625)"/>
       <path id="DejaVuSerif-5f" d="M 3200 -1259 
L 3200 -1509 
L 0 -1509 
L 0 -1259 
L 3200 -1259 
z
" transform="scale(0.015625)"/>
      </defs>
      <use xlink:href="#DejaVuSerif-4c"/>
      <use xlink:href="#DejaVuSerif-5f" transform="translate(66.40625 0)"/>
      <use xlink:href="#DejaVuSerif-56" transform="translate(116.40625 0)"/>
      <use xlink:href="#DejaVuSerif-41" transform="translate(181.873047 0)"/>
      <use xlink:href="#DejaVuSerif-45" transform="translate(254.089844 0)"/>
      <use xlink:href="#DejaVuSerif-20" transform="translate(327.087891 0)"/>
      <use xlink:href="#DejaVuSerif-28" transform="translate(358.875 0)"/>
      <use xlink:href="#DejaVuSerif-69" transform="translate(397.888672 0)"/>
      <use xlink:href="#DejaVuSerif-6e" transform="translate(429.871094 0)"/>
      <use xlink:href="#DejaVuSerif-66" transform="translate(494.275391 0)"/>
      <use xlink:href="#DejaVuSerif-65" transform="translate(531.287109 0)"/>
      <use xlink:href="#DejaVuSerif-72" transform="translate(590.466797 0)"/>
      <use xlink:href="#DejaVuSerif-65" transform="translate(638.269531 0)"/>
      <use xlink:href="#DejaVuSerif-6e" transform="translate(697.449219 0)"/>
      <use xlink:href="#DejaVuSerif-63" transform="translate(761.853516 0)"/>
      <use xlink:href="#DejaVuSerif-65" transform="translate(817.859375 0)"/>
      <use xlink:href="#DejaVuSerif-29" transform="translate(877.039062 0)"/>
     </g>
    </g>
    <g id="patch_15">
     <path d="M 373.944844 62.4315 
L 391.944844 62.4315 
L 391.944844 56.1315 
L 373.944844 56.1315 
z
" style="fill: #dd8452"/>
    </g>
    <g id="text_16">
     <!-- L_AES (enc+dec) -->
     <g transform="translate(399.144844 62.4315) scale(0.09 -0.09)">
      <defs>
       <path id="DejaVuSerif-53" d="M 594 225 
L 594 1288 
L 953 1284 
Q 969 753 1261 498 
Q 1553 244 2150 244 
Q 2706 244 2998 464 
Q 3291 684 3291 1106 
Q 3291 1444 3114 1625 
Q 2938 1806 2369 1978 
L 1753 2163 
Q 1084 2366 811 2669 
Q 538 2972 538 3500 
Q 538 4094 959 4422 
Q 1381 4750 2144 4750 
Q 2469 4750 2856 4679 
Q 3244 4609 3681 4475 
L 3681 3481 
L 3328 3481 
Q 3275 3975 2998 4195 
Q 2722 4416 2156 4416 
Q 1663 4416 1405 4214 
Q 1147 4013 1147 3628 
Q 1147 3294 1340 3103 
Q 1534 2913 2163 2725 
L 2741 2553 
Q 3375 2363 3645 2067 
Q 3916 1772 3916 1275 
Q 3916 597 3481 253 
Q 3047 -91 2188 -91 
Q 1803 -91 1404 -12 
Q 1006 66 594 225 
z
" transform="scale(0.015625)"/>
       <path id="DejaVuSerif-2b" d="M 2931 4013 
L 2931 2259 
L 4684 2259 
L 4684 1753 
L 2931 1753 
L 2931 0 
L 2431 0 
L 2431 1753 
L 678 1753 
L 678 2259 
L 2431 2259 
L 2431 4013 
L 2931 4013 
z
" transform="scale(0.015625)"/>
      </defs>
      <use xlink:href="#DejaVuSerif-4c"/>
      <use xlink:href="#DejaVuSerif-5f" transform="translate(66.40625 0)"/>
      <use xlink:href="#DejaVuSerif-41" transform="translate(116.40625 0)"/>
      <use xlink:href="#DejaVuSerif-45" transform="translate(188.623047 0)"/>
      <use xlink:href="#DejaVuSerif-53" transform="translate(261.621094 0)"/>
      <use xlink:href="#DejaVuSerif-20" transform="translate(330.126953 0)"/>
      <use xlink:href="#DejaVuSerif-28" transform="translate(361.914062 0)"/>
      <use xlink:href="#DejaVuSerif-65" transform="translate(400.927734 0)"/>
      <use xlink:href="#DejaVuSerif-6e" transform="translate(460.107422 0)"/>
      <use xlink:href="#DejaVuSerif-63" transform="translate(524.511719 0)"/>
      <use xlink:href="#DejaVuSerif-2b" transform="translate(580.517578 0)"/>
      <use xlink:href="#DejaVuSerif-64" transform="translate(664.306641 0)"/>
      <use xlink:href="#DejaVuSerif-65" transform="translate(728.320312 0)"/>
      <use xlink:href="#DejaVuSerif-63" transform="translate(787.5 0)"/>
      <use xlink:href="#DejaVuSerif-29" transform="translate(843.505859 0)"/>
     </g>
    </g>
    <g id="patch_16">
     <path d="M 373.944844 75.892125 
L 391.944844 75.892125 
L 391.944844 69.592125 
L 373.944844 69.592125 
z
" style="fill: #55a868"/>
    </g>
    <g id="text_17">
     <!-- L_KEM (keygen+encaps+decaps) -->
     <g transform="translate(399.144844 75.892125) scale(0.09 -0.09)">
      <defs>
       <path id="DejaVuSerif-4b" d="M 353 0 
L 353 331 
L 947 331 
L 947 4331 
L 353 4331 
L 353 4666 
L 2175 4666 
L 2175 4331 
L 1581 4331 
L 1581 2566 
L 3591 4331 
L 3084 4331 
L 3084 4666 
L 4634 4666 
L 4634 4331 
L 4109 4331 
L 2106 2572 
L 4347 331 
L 4878 331 
L 4878 0 
L 3794 0 
L 1581 2216 
L 1581 331 
L 2175 331 
L 2175 0 
L 353 0 
z
" transform="scale(0.015625)"/>
      </defs>
      <use xlink:href="#DejaVuSerif-4c"/>
      <use xlink:href="#DejaVuSerif-5f" transform="translate(66.40625 0)"/>
      <use xlink:href="#DejaVuSerif-4b" transform="translate(116.40625 0)"/>
      <use xlink:href="#DejaVuSerif-45" transform="translate(191.113281 0)"/>
      <use xlink:href="#DejaVuSerif-4d" transform="translate(264.111328 0)"/>
      <use xlink:href="#DejaVuSerif-20" transform="translate(366.503906 0)"/>
      <use xlink:href="#DejaVuSerif-28" transform="translate(398.291016 0)"/>
      <use xlink:href="#DejaVuSerif-6b" transform="translate(437.304688 0)"/>
      <use xlink:href="#DejaVuSerif-65" transform="translate(497.900391 0)"/>
      <use xlink:href="#DejaVuSerif-79" transform="translate(557.080078 0)"/>
      <use xlink:href="#DejaVuSerif-67" transform="translate(613.574219 0)"/>
      <use xlink:href="#DejaVuSerif-65" transform="translate(677.587891 0)"/>
      <use xlink:href="#DejaVuSerif-6e" transform="translate(736.767578 0)"/>
      <use xlink:href="#DejaVuSerif-2b" transform="translate(801.171875 0)"/>
      <use xlink:href="#DejaVuSerif-65" transform="translate(884.960938 0)"/>
      <use xlink:href="#DejaVuSerif-6e" transform="translate(944.140625 0)"/>
      <use xlink:href="#DejaVuSerif-63" transform="translate(1008.544922 0)"/>
      <use xlink:href="#DejaVuSerif-61" transform="translate(1064.550781 0)"/>
      <use xlink:href="#DejaVuSerif-70" transform="translate(1124.169922 0)"/>
      <use xlink:href="#DejaVuSerif-73" transform="translate(1188.183594 0)"/>
      <use xlink:href="#DejaVuSerif-2b" transform="translate(1239.501953 0)"/>
      <use xlink:href="#DejaVuSerif-64" transform="translate(1323.291016 0)"/>
      <use xlink:href="#DejaVuSerif-65" transform="translate(1387.304688 0)"/>
      <use xlink:href="#DejaVuSerif-63" transform="translate(1446.484375 0)"/>
      <use xlink:href="#DejaVuSerif-61" transform="translate(1502.490234 0)"/>
      <use xlink:href="#DejaVuSerif-70" transform="translate(1562.109375 0)"/>
      <use xlink:href="#DejaVuSerif-73" transform="translate(1626.123047 0)"/>
      <use xlink:href="#DejaVuSerif-29" transform="translate(1677.441406 0)"/>
     </g>
    </g>
    <g id="patch_17">
     <path d="M 373.944844 89.35275 
L 391.944844 89.35275 
L 391.944844 83.05275 
L 373.944844 83.05275 
z
" style="fill: #c44e52"/>
    </g>
    <g id="text_18">
     <!-- L_IO -->
     <g transform="translate(399.144844 89.35275) scale(0.09 -0.09)">
      <use xlink:href="#DejaVuSerif-4c"/>
      <use xlink:href="#DejaVuSerif-5f" transform="translate(66.40625 0)"/>
      <use xlink:href="#DejaVuSerif-49" transform="translate(116.40625 0)"/>
      <use xlink:href="#DejaVuSerif-4f" transform="translate(155.908203 0)"/>
     </g>
    </g>
   </g>
  </g>
 </g>
 <defs>
  <clipPath id="p5817189707">
   <rect x="40.454844" y="34.032281" width="521.275" height="296.354"/>
  </clipPath>
 </defs>
</svg>
